<?xml version="1.0" encoding="utf-8"?>
<!-- Generator: Adobe Illustrator 18.0.0, SVG Export Plug-In . SVG Version: 6.00 Build 0)  -->
<!DOCTYPE svg PUBLIC "-//W3C//DTD SVG 1.1//EN" "http://www.w3.org/Graphics/SVG/1.1/DTD/svg11.dtd">
<svg version="1.1" id="Layer_1" xmlns="http://www.w3.org/2000/svg" xmlns:xlink="http://www.w3.org/1999/xlink" x="0px" y="0px"
	 viewBox="0 0 100 100" enable-background="new 0 0 100 100" xml:space="preserve">
<g>
	<path d="M92.9,66.6c-6,0.3-11.9,2.3-11.9,2.3c-0.9-1.2-2.5-13.4-2.7-22.9c-0.2-10.2,4.2-26.1,4.2-26.1C79.2,17.3,67.8,15,47.7,15
		s-26.9,3.5-26.9,3.5s3.1,17.3,3.2,25.6c0.2,8.3-2.5,21.2-2.5,21.2c-20.2-3.4-16,6.1-16,6.1C9.9,85,29.7,85,29.7,85
		C54.2,85,66,78.2,66,78.2c24.8,3,28.3-7.5,28.3-7.5C96.3,66.5,92.9,66.6,92.9,66.6z M65.1,46.8c0.3,6.3,0.2,9.9,0.9,23.1
		c0,0-3.1,0.3-4,0c0,0,1-15.6,1-22.3c0-6.7,0.3-8.9-0.3-26.8c0,0,1.5-0.1,3.8,0.4C66.5,21.2,64.8,40.5,65.1,46.8z M91.2,70.3
		c0,0-13.8,2.1-22.5,6.5h-0.3c0,0,8.4-5.6,22-7.8C90.4,68.9,93.1,68.3,91.2,70.3z"/>
	<path d="M29.7,85.1L29.7,85.1c-0.1,0-5,0-10.5-1.7c-5.1-1.5-11.6-4.9-13.9-11.9c0,0-1-2.3,0.3-4.2c1.2-1.8,4-2.8,8.2-2.8
		c2.1,0,4.7,0.2,7.5,0.7c0.2-1.1,2.7-13.2,2.5-21.1c-0.2-8.2-3.2-25.4-3.2-25.6l0-0.1l0.1,0c0.1,0,7.1-3.5,27-3.5
		c9.5,0,17.4,0.5,23.7,1.5c5.5,0.9,9.4,2.1,11.2,3.5l0,0l0,0.1c0,0.2-4.4,16.1-4.2,26.1c0.2,9.6,1.8,21.4,2.6,22.8
		c0.7-0.2,6.3-2,11.9-2.3c0,0,0,0,0,0c0.2,0,1.3,0,1.8,0.9c0.5,0.7,0.4,1.8-0.3,3.3c0,0.1-0.7,2-3.6,4c-2.6,1.8-7.6,4-16.5,4h0
		c-2.6,0-5.4-0.2-8.3-0.5C65.3,78.6,53.4,85.1,29.7,85.1L29.7,85.1z M13.9,64.7c-4.2,0-6.9,0.9-8.1,2.7c-1.2,1.9-0.3,4-0.3,4.1
		c2.3,7,8.8,10.2,13.8,11.8c5.4,1.7,10.4,1.7,10.4,1.7l0,0c24.2,0,36.1-6.7,36.2-6.8l0,0l0,0c3,0.4,5.8,0.5,8.3,0.5
		c8.9,0,13.8-2.2,16.4-4c2.8-2,3.5-4,3.5-4c0.7-1.4,0.8-2.5,0.3-3.2c-0.5-0.7-1.5-0.8-1.7-0.8h0C87,67,81,69,81,69l-0.1,0l0-0.1
		c-0.9-1.3-2.5-13.8-2.7-22.9C78,36.3,82.1,21,82.4,20c-3.1-2.4-13.8-4.9-34.7-4.9c-18.9,0-26.1,3.1-26.8,3.5
		c0.2,1.2,3.1,17.6,3.2,25.6c0.2,8.2-2.5,21.1-2.5,21.2l0,0.1l-0.1,0C18.6,64.9,16,64.7,13.9,64.7z M68.7,76.8h-0.6l0.2-0.2
		c0.1-0.1,8.5-5.7,22.1-7.8c0,0,0.4-0.1,0.7-0.1c0.5,0,0.7,0.1,0.8,0.3c0.1,0.3-0.1,0.7-0.7,1.3l0,0l0,0
		C91,70.4,77.3,72.5,68.7,76.8L68.7,76.8z M91.1,68.9c-0.4,0-0.7,0.1-0.7,0.1c-12.1,1.9-20.1,6.6-21.7,7.6
		c8.4-4.2,21.7-6.3,22.4-6.4c0.7-0.7,0.7-0.9,0.6-1.1C91.7,69,91.5,68.9,91.1,68.9z M63.4,70.1c-0.7,0-1.2,0-1.5-0.1l-0.1,0l0-0.1
		c0-0.2,1-15.7,1-22.3c0-1.7,0-3,0-4.4c0.1-4.4,0.1-8.9-0.3-22.4l0-0.1l0.1,0c0,0,1.5-0.1,3.8,0.4l0.1,0l0,0.1
		c0,0.2-1.7,19.3-1.4,25.5c0.1,2.5,0.2,4.6,0.2,7c0.1,3.6,0.2,8.1,0.6,16.1l0,0.1L66,70C66,70,64.6,70.1,63.4,70.1z M62.1,69.8
		c0.3,0.1,0.7,0.1,1.4,0.1c1,0,2.1-0.1,2.5-0.1c-0.4-7.9-0.5-12.4-0.6-16c-0.1-2.4-0.1-4.5-0.2-7c-0.3-6.1,1.2-24.2,1.4-25.5
		c-1.9-0.4-3.2-0.4-3.6-0.4c0.4,13.4,0.3,17.9,0.3,22.3c0,1.4,0,2.8,0,4.4C63,54,62.2,68.7,62.1,69.8z"/>
</g>
</svg>
